<?xml version="1.0" encoding="UTF-8"?>
<svg id="Layer_1" xmlns="http://www.w3.org/2000/svg" version="1.1" viewBox="0 0 65.06 31.29">
  <!-- Generator: Adobe Illustrator 29.8.1, SVG Export Plug-In . SVG Version: 2.1.1 Build 2)  -->
  <path d="M26.94,0c-3.29,0-6.21,2.1-7.26,5.22l-5.71,16.97L8.29,5.25C7.24,2.11,4.3,0,1,0H.03S0,.02,0,.04l1.86,5.22,8.15,22.83c.57,1.6,2.09,2.67,3.79,2.67h.34c1.7,0,3.22-1.07,3.79-2.68L26.06,5.26,27.92.04s0-.04-.03-.04h-.96Z"/>
  <path d="M30.75,15.16v15.6c3.42,0,6.2-2.77,6.2-6.2v-15.6c-3.42,0-6.2,2.77-6.2,6.2Z"/>
  <path d="M53.51,8.26c-7.43,0-11.56,5.14-11.56,11.47s4.13,11.56,11.56,11.56,11.56-5.19,11.56-11.56-4.09-11.47-11.56-11.47ZM53.51,25.71c-3.08,0-5.36-2.33-5.36-5.98s2.29-5.89,5.36-5.89,5.36,2.29,5.36,5.89-2.29,5.98-5.36,5.98Z"/>
  <path d="M31.7,6.76l4.82-2.79c.42-.24.42-.85,0-1.1L31.7.09c-.42-.24-.95.06-.95.55v5.57c0,.49.53.79.95.55Z"/>
</svg>